<?xml version="1.0" standalone="no"?><!DOCTYPE svg PUBLIC "-//W3C//DTD SVG 1.1//EN" "http://www.w3.org/Graphics/SVG/1.1/DTD/svg11.dtd"><svg class="icon" width="200px" height="200.00px" viewBox="0 0 1024 1024" version="1.1" xmlns="http://www.w3.org/2000/svg"><path d="M689.43872 675.84v122.88c0 90.48064-74.97728 163.84-167.46496 163.84C267.61216 962.56 61.44 760.832 61.44 512S267.63264 61.44 521.97376 61.44c169.3696 0 319.81568 88.064 397.4144 222.74048 33.15712 57.56928 47.2064 113.02912 42.1888 166.37952 0 56.54528-46.87872 102.4-104.67328 102.4h-41.8816c-69.36576 0-125.58336 55.00928-125.58336 122.88zM491.52 860.16a81.92 81.92 0 1 0 0-163.84 81.92 81.92 0 0 0 0 163.84z m-204.8-163.84a81.92 81.92 0 1 0 0-163.84 81.92 81.92 0 0 0 0 163.84z m-20.48-245.76a81.92 81.92 0 1 0 0-163.84 81.92 81.92 0 0 0 0 163.84z m204.8-122.88a81.92 81.92 0 1 0 0-163.84 81.92 81.92 0 0 0 0 163.84z m225.28 61.44a81.92 81.92 0 1 0 0-163.84 81.92 81.92 0 0 0 0 163.84z" /></svg>