<svg width="200" height="200" viewBox="0 0 200 200" fill="none" xmlns="http://www.w3.org/2000/svg">
<g id="Vector">
<path d="M64.8941 46.6585C68.7994 50.5637 68.7994 56.8954 64.8941 60.8006L42.6041 83.0907C33.1052 92.5895 33.1052 107.99 42.6041 117.489L64.2294 139.114C68.1346 143.02 68.1346 149.351 64.2294 153.257L60.0899 157.396C59.4991 157.987 58.8855 158.541 58.2519 159.058C55.0845 161.644 50.5855 160.661 47.6941 157.769L7.12415 117.199C-2.37472 107.7 -2.37472 92.2996 7.12415 82.8008L48.0439 41.881C50.8881 39.0369 55.2912 38.0285 58.4662 40.4979C59.2603 41.1156 60.0249 41.7893 60.7547 42.5191L64.8941 46.6585Z" fill="#42D392"/>
<path d="M85.8505 32.5948C88.7557 35.5 93.1336 36.1328 97.2075 35.6008C104.441 34.6562 112.017 36.9622 117.574 42.5191L157.481 82.4259C166.98 91.9248 166.98 107.325 157.481 116.824L116.909 157.396C111.454 162.851 104.053 165.173 96.9402 164.363C92.9439 163.907 88.6792 164.577 85.835 167.421L78.6614 174.594C74.7561 178.5 74.7561 184.831 78.6614 188.736L82.8008 192.876C92.2996 202.375 107.7 202.375 117.199 192.876L192.876 117.199C202.375 107.7 202.375 92.2996 192.876 82.8008L155.038 44.9625L117.199 7.12415C107.7 -2.37472 92.2996 -2.37472 82.8008 7.12415L78.6614 11.2636C74.7561 15.1688 74.7561 21.5005 78.6614 25.4057L85.8505 32.5948Z" fill="#409EFF"/>
<path d="M93.2635 79.3095C97.063 75.51 103.223 75.51 107.023 79.3095L120.782 93.0689C124.582 96.8685 124.582 103.029 120.782 106.828L107.023 120.588C103.223 124.387 97.063 124.387 93.2635 120.588L79.5041 106.828C75.7046 103.029 75.7046 96.8685 79.5041 93.0689L93.2635 79.3095Z" fill="#BA38FE"/>
</g>
</svg>
